<?xml version="1.0" encoding="utf-8"?>
<!-- Generator: Adobe Illustrator 27.6.1, SVG Export Plug-In . SVG Version: 6.00 Build 0)  -->
<svg version="1.1" id="Calque_1" xmlns="http://www.w3.org/2000/svg" xmlns:xlink="http://www.w3.org/1999/xlink" x="0px" y="0px"
	 viewBox="0 0 512 512" style="enable-background:new 0 0 512 512;" xml:space="preserve">
<style type="text/css">
	.st0{fill:#FFFFFF;}
	.st1{opacity:0.15;fill:#013682;enable-background:new    ;}
	.st2{opacity:0.15;fill:none;stroke:#3F3F3F;stroke-width:3;stroke-miterlimit:10;enable-background:new    ;}
</style>
<g>
	<path class="st0" d="M393.4,422.3c-0.5,0.9-1.1,1.7-1.7,2.6c-0.9,0.8-1.7,1.7-2.6,2.5c-14.4,11.8-30.3,20.9-47.4,28
		c-9.7,4.1-20,6.9-30.1,10.3c-2,0.6-4,1.1-5.9,1.7c-5.1,0.9-10.2,1.8-15.3,2.7c-0.6,0.2-1.2,0.5-1.7,0.7c-1.4,0-2.8,0.1-4.2,0.1
		c-0.6,0.3-1.2,0.5-1.8,0.7c-1.7,0-3.4,0.1-5.1,0.1c-0.9,0.3-1.7,0.5-2.6,0.7c-2,0.5-4,0.9-5.9,1.4l0,0c-1.5,0.1-3,0.2-4.5,0.2
		c-1.2-1-2.2-2.5-3.5-2.7c-0.9-0.1-2,1.8-3.1,2.9c-0.7,0-1.4,0-2.1,0c-1,0-2,0-3,0c-1-1-2.2-3-3.1-2.9c-1.3,0.2-2.3,1.6-3.5,2.7
		c-1.2,0-2.4-0.1-3.7-0.2c-1-0.5-2.1-1.1-3.2-1.2c-8.4-1.1-16.9-1.7-25.2-3.2c-28.3-5.3-54.5-16.1-78.5-32
		c-7-4.7-13.3-10.4-19.9-15.6c6.7-4.3,13.2-9,20.1-12.9c18.4-10.3,37.1-20,55.5-30.4c8.6-4.8,12.7-13,12.9-22.8
		c0.2-7.9,0.1-15.9,0-23.8c0-1.3-0.3-2.9-1.1-3.9c-7.9-10.5-14.3-21.9-19.2-34.2c-0.6-1.5-0.5-3.3-1-4.9c-0.7-2.2-1.8-4.3-2.3-6.5
		c-1.6-6.8-7.7-10.7-10.6-16.6c-1.4-2.8-2.1-6.1-2.2-9.2c-0.3-10.1,0-20.1-0.1-30.2c0-5,2.2-9.1,4.9-13c1.3-1.8,2.3-4.2,2.4-6.3
		c0.2-12.2,0.8-24.4-0.1-36.6c-0.7-9.2,0.4-17.9,3.4-26.4c6-17.1,18.5-27.9,35.2-34.1c4.3-1.6,8.8-3.8,13.2-3.8
		c5.4,0,10.3-2.2,15.5-2.2c8.5,0,17-0.2,25.5,0.1c2.6,0.1,5.1,1.3,7.6,1.7c2.9,0.5,5.9,0.3,8.8,0.8c16.4,3.3,30.8,10.2,40.9,24.1
		c6.3,8.7,9.8,18.7,10.1,29.4c0.5,15.7,0.1,31.5,0.3,47.2c0,1.9,0.8,4.1,1.9,5.7c3.4,5.2,5.6,10.6,5.5,16.9
		c-0.3,9.9-0.2,19.8-0.8,29.7c-0.5,7.4-4.7,12.8-11.3,16c-2.6,1.3-4,3-5,5.7c-6.1,16.8-14.1,32.5-25.4,46.4
		c-0.9,1.2-1.3,3.1-1.3,4.7c-0.2,8.9-0.6,17.9,0,26.8c0.6,9.2,5.6,16.5,13.8,20.7c23.2,11.8,46.6,23.3,69.8,35.1
		C386.7,416.9,389.9,419.8,393.4,422.3L393.4,422.3z"/>
	<path class="st1" d="M473.3,259.8c-0.2,7.1-0.8,14.2-1.3,21.3c-0.1,0.8-0.2,1.7-0.4,2.5c-0.8,4-1.7,8-2.3,12.1
		c-0.2,1.2,0.9,2.6,0.6,3.7c-0.7,2.6-2,5.1-2.7,7.7c-5.8,21.8-14,42.6-25.8,61.9c-11.1,18.1-24.5,34.1-40.2,48.4
		c-2.2,2-5.2,3.3-7.8,5c-3.5-2.5-6.8-5.4-10.6-7.4c-23.2-11.8-46.6-23.2-69.8-35.1c-8.3-4.2-13.2-11.5-13.8-20.7
		c-0.6-8.9-0.1-17.8,0-26.8c0-1.6,0.4-3.5,1.3-4.7c11.3-13.9,19.3-29.6,25.4-46.4c1-2.8,2.4-4.5,5-5.7c6.7-3.2,10.8-8.7,11.3-16
		c0.6-9.9,0.5-19.8,0.8-29.7c0.2-6.3-2.1-11.7-5.5-16.9c-1.1-1.6-1.9-3.8-1.9-5.7c-0.2-15.7,0.2-31.5-0.3-47.2
		c-0.3-10.7-3.8-20.6-10.1-29.4c-10.1-14-24.5-20.8-40.9-24.1c-2.9-0.6-5.9-0.4-8.8-0.8c-2.6-0.4-5.1-1.6-7.6-1.7
		c-8.5-0.2-17-0.1-25.5-0.1c-5.3,0-10.1,2.2-15.5,2.2c-4.4,0-8.9,2.2-13.2,3.8c-16.7,6.2-29.1,17-35.2,34.1
		c-3,8.5-4.1,17.2-3.4,26.4c0.9,12.1,0.3,24.4,0.1,36.6c0,2.2-1.1,4.5-2.4,6.3c-2.8,4-5,8-4.9,13c0.1,10.1-0.2,20.1,0.1,30.2
		c0.1,3.1,0.8,6.4,2.2,9.2c2.9,5.9,9,9.8,10.6,16.6c0.5,2.2,1.6,4.3,2.3,6.5c0.5,1.6,0.4,3.3,1,4.9c4.9,12.2,11.3,23.6,19.2,34.2
		c0.8,1,1,2.6,1.1,3.9c0.1,7.9,0.2,15.9,0,23.8c-0.2,9.8-4.3,18-12.9,22.8c-18.4,10.4-37.1,20.1-55.5,30.4
		c-6.9,3.9-13.4,8.6-20.1,12.9c-0.7-0.4-1.6-0.6-2.2-1.2c-8.4-8.4-17-16.5-24.9-25.3c-9.8-11-18.5-23-25-36.4
		c-3.3-6.9-6.8-13.7-9.8-20.7c-2-4.6-3.8-9.3-5.5-14.1c-7.1-21.5-10.9-44.4-10.9-68.2c0-8.9,0.5-17.7,1.6-26.4
		c0.1-0.5,0.2-1,0.2-1.6c0.3-1.8,0.5-3.6,0.8-5.4c0.2-1.1,0.3-2.2,0.5-3.3c0.2-1.2,0.4-2.4,0.6-3.7c0-0.1,0-0.1,0-0.2
		c7.1-38,24-72.5,48.1-100.8l0,0c4.7-4.9,9.3-9.8,14-14.6c0.8-0.8,1.7-1.7,2.5-2.5c1.1-1.1,2.2-2.2,3.3-3.2c0.9-0.8,1.7-1.6,2.6-2.4
		c0.1-0.1,0.2-0.2,0.2-0.2s0.1,0,0.1-0.1c23.3-20.4,50.9-35.9,81.3-44.9c0.6-0.2,1.2-0.4,1.7-0.5c7-2,14.1-3.6,21.4-4.9
		c2.4-0.4,4.8-0.8,7.3-1.2c1.5-0.2,3.1-0.5,4.6-0.8l0,0c9-1.1,18.1-1.7,27.3-1.7c6.3,0,12.5,0.3,18.6,0.8c1.3,0.4,2.5,0.7,3.8,0.9
		c9.5,1.5,19.1,2.3,28.4,4.6c20.3,5,39.7,12.5,57.8,23.2c13.7,8,26.6,17,38,27.9c9.3,9,18,18.7,26.1,28.8
		c12.1,15.1,21.4,32,28.7,49.9c8.5,20.8,12.9,42.5,15.4,64.6c-0.1,2.7-0.2,5.4-0.2,8C472.8,250.9,473.4,255.4,473.3,259.8
		L473.3,259.8z"/>
	<circle class="st2" cx="256" cy="256" r="222.1"/>
</g>
</svg>
