<?xml version="1.0" encoding="UTF-8"?>
<svg id="Calque_1" data-name="Calque 1" xmlns="http://www.w3.org/2000/svg" xmlns:xlink="http://www.w3.org/1999/xlink" viewBox="0 0 512 512">
  <defs>
    <style>
      .cls-1 {
        stroke: #3f3f3f;
        stroke-miterlimit: 10;
        stroke-width: 3px;
      }

      .cls-1, .cls-2 {
        opacity: .15;
      }

      .cls-1, .cls-3, .cls-4 {
        fill: none;
      }

      .cls-5 {
        fill: #fff;
      }

      .cls-2 {
        fill: #da2385;
      }

      .cls-4 {
        clip-path: url(#clippath);
      }
    </style>
    <clipPath id="clippath">
      <circle class="cls-3" cx="260.21" cy="259.46" r="202.31"/>
    </clipPath>
  </defs>
  <circle class="cls-2" cx="260.21" cy="265.05" r="196.62"/>
  <circle class="cls-1" cx="260.21" cy="265.05" r="202.31"/>
  <g class="cls-4">
    <g>
      <path class="cls-5" d="m68.42,485.3c-1.19,1.5-4.39.64-4.29,3.81.03.9-1.18.96-1.85.25-1.01-1.06-1.26-2.41-.26-3.48.95-1.03,2.25-1.73,3.4-2.57.09,2.03,1.55,2.01,3,2Z"/>
      <path class="cls-5" d="m366.25,203.98c-.1,1.07.14,2.24-.92,3.01-2.83,2.49-5.21,3.31-7.36-.99-1.41-2.82-4.53-4.29-6.76-6.51-2.33-2.31-3.75-.18-5.03,1.71-1.09,1.61-2.52,2.79-4.6,2.09-2.31-.77-1.69-2.74-1.88-4.8-.23,5.44,3.43,14-8.5,9.95,2.69,6.01.29,8.94-5.26,10.02-1.23.24-2.13,1.16-2.27,2.4-.51,4.62-5.28,6.74-6.38,11.04-.29,1.14-1.6,2.04-2.75,1.79-5.68-1.25-7.64,3.84-11.01,6.39-2.35,1.78-1.38,3.87.86,5.2,2.71,1.61,5.64,2.84,6.69,6.26.37,1.2,1.64,1.58,2.89,1.53,2.94-.12,5.34.52,5.79,3.98.02.16-.02.33-.04.5,7.19-.5,4.8,8.53,10.12,10.07,4.77,1.39,9.44,2.36,12.29,7.87,1.24,2.4,6.62,3.04,10.01,4.84,3.56,1.88,4.68-1.89,6.46-3.85,3.21-2.61,3.09-7.38,6.45-9.89,1.67-.22,2.78.81,2.72,2.17-.12,2.74,1.89,3.15,3.62,3.99,1.26.73,2.29,1.68,2.86,3.06.04,2.17.24,4.23,2.54,5.4.87.44,1.78,1.25,1.47,2.31-.35,1.19-1.55,1.56-2.75,1.71-2.45.3-4.79-.9-7.25-.46-.79.01-1.55-.03-2.04-.78-1.74-.94-2.41.47-2.82,1.55-1.13,2.96-2.14,5.87-5.08,7.69-1.25.78-.8,2.1.06,3.02,1.2,1.29,1.4,2.93,1.85,4.5-.37,1-.75,2-1.12,3-1.93,1.3-3.95,2.23-6.36,1.64-.81-.33-1.41-.93-1.74-1.7-1.71-3.98-3.9-3.98-6.51-.85-1.77,4.09-4.54,7.28-8.48,9.43-4.49,3.5,1.04,2.37,1.63,3.51,1.11,5.69-2.67,9.4-9.34,9.21-1.59-.04-3.95-1.41-3.73,1.99.18,3.15-1.74,4.38-4.46,4.83-1.46.24-2.97.14-4.39.59-.8.36-2-.03-2.39.9-.19.44.83.67,1.28,1.05,1.64,1.68,1.74,3.94-.55,4.2-4.35.48-6.56,3.37-9.13,6.11-.92.98-2.29,1.3-3.51,1.78-1.85.75-1.47,1.82-.5,3.07,2.03,2.63,4.39,4.88,6.95,7.03,4.55,3.81,3.2,9.84-2.45,11.88-1.73-.2-3.17-.97-4.34-2.24-.88-2.49-3.15-1.24-4.77-1.75-.64-.2-1.2-.54-1.7-.98-1.4-1.08-2.11-2.75-3.43-3.91-1.99-1.26-3.41-2.66-3.71-5.35-.29-2.66-1.5-1.09-2.26.06-.27.78-.74,1.53-.51,2.38,1.13,4.04-.71,5.9-4.58,6.32-.89.1-1.43.74-1.96,1.38-2.37,2.51-6.06,3.4-7.93,6.58-.47.8-1.98,1.41-2.66.79-3.45-3.16-4.61.22-6.48,1.98-3.4,3.2-6.29,6.78-9.01,10.58-2.67,3.73-6.88,5.94-9.88,9.6-2.45,2.99-2.43,5.4-1.15,7.94,1.54,3.04,4.2,5.15,8.13,4.03,4.81.11,1.48,3.71,2.4,5.5,2.86,1.69,5.32,3.71,7.46,6.34,2.07,2.56,4.73,4.29,8.7,3.35,5.99-1.4,7.86.69,6.87,7.13,4.34.04,8.62.44,8.75,6.84q5.8-7.32,10.61-3.9c.44-5.19,2.75-8.82,8.07-9.8,1.62-.3,1.54-1.47,1.53-2.66.25-4.42,2.93-5.76,6.91-5.46,1.46-.03,2.9-.24,4.33-.53,2.4-.47,4.42,1.15,6.73,1.2,1.17.28,2.07,1.01,2.96,1.78,5.84,5.05,5.91,5.4,2.08,11.7-1.3,3.67-3.41,3.49-6.06,1.34-5.7-4.59-5.59-4.36-11.57-.79-3.66,2.18-7.48,3.94-9.8,7.76-.41.68-1.23,1.29-2.01,1.41-6.75,1.06-9.35,6.94-13.07,11.37-1.77,2.1-3.51,4.03-6.03,4.98-3.91,1.48-5.91,5.24-9.25,7.4-1.38.89-1.03,2.67-.85,4.18.16,1.32.44,2.81-.97,3.58-1.3.71-2.04-.53-2.94-1.24-2.96-2.31-5.54-1.8-7.54,1.32-1.73,2.71-4.13,4.25-7.33,4.59-.77,0-1.47-.19-2.09-.66-2.24-5.47,3.36-7.68,4.94-11.57.51-1.26,2.08-2.1,3.1-3.19,3.36-5.25,3.81-5.33,7.69-1.51.31.79.38,1.6.36,2.57,1.6-3.09,3.14-6.02,6.39-7.98,3.16-1.9,1.61-5.73.23-7.61-2.87-3.92-6.37-7.64-11.71-8.47-1.94-.02-3.87.1-5.8-.09-1.86-.18-3.54-.65-3.71-2.97,1.49-3.02.65-4.4-2.83-4.61-5.15-.31-5.24-.56-2.66-5.17,1.92-3.42-1.19-3.7-2.89-4.88-.61-.37-1.13-.85-1.58-1.4-5.53-6.27-14.51-7.33-20.8-2.33-1.83,1.45-3.73,2.63-5.83,3.69-7.46,3.76-13.06,9.8-18.62,15.83-2.57,2.78-4.53,6.12-7.82,8.23-1.12.72-2.26,1.57-2.71,2.84-1.34,3.79-3.84,6.61-7.03,8.87,1.61,1.62,3.17,2.87,4.55-.2,2.39-1.82,4.78-1.68,7.16,0,2.81,2.12,1.04,6.31,3.83,8.44-.74,5.52-5.59,7.62-9.09,10.84-5.25-.42-9.23-4.11-14.12-5.49-1.15-.33-1.53-1.69-1.1-2.95.59-1.72.78-3.38-1.26-4.15-2.39-.9-4.85-1.21-7.02.64-1.31,1.12-1.88,3.27-4.21,2.98-3.96-2.88-8-5.69-9.71-10.62.46-1.46,1.53-1.75,2.88-1.52,1.03,1.25,1.75-.02,2.58-.35,1.49-.85,3.98-.66,4.1-2.94.12-2.15-2.17-2.63-3.59-3.64-3.47-2.47-8.42-3.67-7.95-9.45,1.62-2.59,3.6-4.76,6.55-5.86,3.83-.83,5.88.99,7.79,4.23,1.93,3.28,3.39,7.84,8.81,6.92,1.64-1.25,1.92-3.28,1.65-4.84-.77-4.46.96-6.44,5.3-6.57.48-.01.87-.38,1.15-.81.27-.43.55-.83.87-1.22,1.57-1.92,3.37-1.76,5.28-.57.68-1.7.38-4.22,2.88-4.54,3.42-.43,5.07-2.84,6.78-5.3.47-.68.8-1.77,1.49-1.94,6.76-1.68,9.13-9,15.09-11.62,3.85-1.69,4.54-6.59,8.75-8.21-1.69-.17-2.81.91-4.16.99-2.13.14-4.44-1.21-4.07-2.72,1.14-4.58-1.6-6.93-4.05-9.85-1.43-1.7.38-3.37,1.34-4.87.64-.39,1.27-.77,1.91-1.16,3.05.16,5.42-1.78,8.13-2.67.71-.08,1.39.02,2.03.31,2.39,2.32,1.96,6.49,5.37,8.14,1.58,2.5,1.94,6.78,6.73,4.6,2.79-.73,6.41-.26,6.58-4.67.25-3.02,2.15-4.81,4.6-6.19,4.6-2.41,6.23-7.95,10.85-10.34,2.31-1.43,4.68-2.75,7.07-4.04,2.36-1.2,3.02-3.76,4.55-5.64,3.21-1.51,5.84-3.58,7.44-6.89,1.03-2.12,2.76-3.69,5.04-4.6,1.11-.44,2.08-1.15,1.89-2.58-.16-1.17-1.1-1.54-2.07-1.88-5.49-1.94-10.56-4.17-13.32-10.04-1.22-2.59-4.46-4.54-6.63-5.95-6.07-3.92-10.4-10.19-17.59-12.55-4.51-1.48-8.19-4.4-10.31-8.82-.99-2.04-2.37-2.84-4.36-1.73-3.78,2.1-7.67,4.25-8.96,8.78-.61,2.13-1.62,3.55-3.69,4.26-1.97.68-3.24,2.23-4.64,3.65-1.78,1.81-3.74,3.33-6.55,2.88-4.78-.99-9.51-1.84-13.33,2.5-.61.69-1.85,1.28-2.69.52-.98-.89-.78-2.41.06-3.17,3.6-3.25,3.5-9.07,8.31-11.5,1.59-.8.9-3.79,2.06-4.28,4.27-1.81,6.17-5.49,8.9-8.73,1.59-1.89,6.14-1,9.27-2.13,1.91-.69,3.33-1.2,3.38-3.52.05-2.09-.57-3.6-2.75-4.08-2.06-.46-3.43-1.77-4.85-3.26-4.33-4.51-9.22-7.95-15.99-7.05-3.42.46-5.63-.7-6.87-4.18-2-5.63-6.52-9.56-10.5-13.72-1.59-1.66-2.42-3.92-4.54-5.17-3.33-1.95-6.68-2.73-10.37-1.22-5.67-3.13-6.68-2.67-7.97,3.65-.19.95-.3,1.92-.97,2.7-2.66.53-4.2-.92-5.34-3.05l.08-2.89c-.08-2.48-.17-4.95.98-7.27,6.24-1.59,8.18-3.94,6.97-8.46-1.7-1.8-3.45-2.99-6.07-1.57-3.38,1.83-4.74-.97-4.25-3.07.9-3.86,1.82-7.9,4.28-11.23.39-.53,1.12-.66,1.8-.69,3.03,3.36,6.36,5.12,10.62,2.01,2.39,1.11,2.17,3.91,3.73,5.66,2.49,2.79,4.87,3.87,8.12,1.33,3.36-2.63,8.58-3.8,7.34-9.88-.16-.78.74-1.46,1.46-1.89,3.09-1.85,4.96-4,3.88-8.11-.64-2.45,1.48-3.84,3.89-4.2,1.5-.23,3.1-.34,3.82-1.91,1.67-3.62,4.14-5.93,8.42-5.82,1.16.03,1.67-.98,1.79-2.05.42-3.81,2.93-5.28,6.36-5.9,2.17-.39,5.58-.32,4.59-3.64-.8-2.71-.9-7.1-5.85-6.53-.5.06-1.15.16-1.46-.15-3.75-3.74-9.15-5.41-12.73-8.9-7.46-7.27-13.27-16.26-23.15-20.87-1.35-.63-1.56-2.46-2.85-3.22-1.26,1.22-.68,2.69-1.14,3.89-1.31,3.45-5.97,4.7-8.68,2.34-2.24-1.96-2-4.01.7-5.21,1.04-.46,2.79-.5,2.61-1.84-.62-4.65,3.21-6.21,5.71-8.64,2.27-2.21,4.4-4.52,6.33-7.02.81-1.05,1.48-2.39,2.8-2.75,4.71-1.29,7.64-4.92,10.97-8.03,1.34-.7,2.68-1.39,4.01-2.09,1.88-.41,3.45.21,4.02,1.99.7,2.19-.56,4.49-2.27,5.07-5.94,2-8.91,6.22-10.58,11.87-.59,2-3.25,2.12-4.55,4.29,5.99,1.14,9.85,5.46,14.53,8.5.7.45,1.65.82,1.94,1.53,1.99,4.89,5.8,6.83,10.83,7.05.97.04,2.13.67,2.47,1.54,2.31,6.02,7.86,8.55,12.64,11.9,1.81,1.27,2.02,3.36,3.03,5.03.58.96,1.33,3.1,2.71,1.36,1.49-1.87,3.05-2.15,5.16-2.15,2.24,0,1.68-2.1,2.03-3.4.6-2.24,2.11-3.33,4.28-3.56,2.08-.22,3.34.76,3.35,3.13.9-.82,1.49-1.42,1.66-2.28,1.25-6.6,3.98-9.47,10.69-10.82,3.07-.62,4.15-1.94,3.47-5.2-1.15-5.5,5.55-11.49,10.95-9.8,1.91.6,2.77.07,3.73-1.25,2.59-3.56,5.96-6.13,10.82-7.9-3.52-2.17-6.78-3.64-9.59-6.05-3.82-3.27-7.8-6.49-11.78-9.6-3.22-2.52-5.46-5.71-8.3-8.44-1.89-1.82-1.51-2.77.7-4.8.68.03,1.37.06,2.05.08,5.94,1.35,11.92,2.46,16.62,6.93,2.3,2.19,5.53,2.99,8.4,4.25,3.65,1.61,6.78,3.49,7.53,7.83.13.79.67,1.52,1.67,1.57-.24-6.81-.2-7.04,7.12-6.45,3.86.31,6.66-1.42,9.59-3.25,15.36-2.66,27.26,3.9,37.72,14.18,4.24,4.17,4.75,10.32,7.97,15.2,6.65,10.12,10.94,21.44,13.33,33.38.31,2.03-.25,4.15-1.18,5.66-2.84,4.62-1.01,7.28,3.12,9.37.33,2,.65,3.99.98,5.99,0,1.66,0,3.33,0,4.99Z"/>
      <path class="cls-5" d="m361.28,155.1c-3.33-5.99-6.66-11.97-10-17.96,6.34,4.32,8.57,10.91,10,17.96Z"/>
      <path class="cls-5" d="m251.32,104.23c-1.16.82-1.43,2.6-.72,3.03,3.52,2.13,4.07,7.13,8.43,8.37,1.41.4,2.61,1.2,3.29,2.78,1.14,2.66,3.11,4.43,6.03,5.39,2.28.75,4.61,1.68,5.32,4.67.47,1.97,2.61,1.68,4.26,1.7,2.08.02,3.81,1.01,4.07,2.96.38,2.77-2.18,1.56-3.52,2.08-3.41,1.33-5.98,3.71-8.1,6.69-1.38,1.94-2.71,5.64-5.43.99-.14-.25-.59-.56-.79-.5-3.04.99-4.85,3.89-8.03,4.92-1.41.46-.95,2.93-.32,4.55,1.58,4.09-.43,7.03-4.8,6.54-3.16-.36-3.99,2.9-6.64,3.59-1.96.51-4.45,2.74-1.62,5.76.71.76.26,1.18-5.34,4.97-1.65-1.26,2.89-4.08-.96-4.5-3.07-.33-4.35,1.68-4.14,4.77.18,2.58-.25,4.42-3.59,2.45-1.67-.98-3.2-.39-3.38,2.02-.29,3.79-1.89,2.03-3.34.71-.25-.22-.64-.46-.66-.72-.56-5.9-6.8-6.96-9.43-11.08-.7-1.1-1.94-1.12-3.05-1.45-1.49-.44-3.19-1.71-3.11-2.87.37-5.27-3.28-4.61-6.51-5-3.11-.38-5.95-.72-6.4-5.22-.29-2.92-4.27-3.7-6.54-5.45-3.33-2.55-6.71-5.29-11.15-5.96-.78-.12-1.54-.74-1.56-1.71-.02-1.01.68-1.43,1.58-1.53,4.36-.5,5.62-3.71,6.14-7.31.5-3.46,2.23-5.42,5.72-5.69,1.23-.09,2.19-.52,3.13-1.3,3.37-2.83,3.2-4.43-.78-6.69,14.89-5.87,29.74-11.98,45.6-14.7,5.46-.93,11.02,1.08,16.35,2.73Z"/>
      <path class="cls-5" d="m214.35,374.57c-2.58,1.13-4.57,4.81-8.09,1.86,5.53-10.7,3.75-19.07-5.8-25.26-4.33-2.8-6.12-7.61-8.97-11.58-.67-.38-.96-1.42-1.6-1.46-.55-.03-.38.98-.57,1.52,1.29,6.58,2.82,13.15,1.98,19.94-.86.81-1.68,1.75-3.05,1-.27-12.16-4.18-23.7-6.13-35.56-.83-5.06-1.11-10.07-5.88-13.25.8-2.24,3.08-2.03,4.73-2.87.75-.35,1.54-.62,2.24-1.08,1.3-.86,2.48-1.87,1.94-3.63-.52-1.7-2.08-1.99-3.59-2.17-1.49-.17-2.99-.12-4.46.15-3.88.74-2.01,4.72-3.76,6.65-3.49-2.45-4.79-6.26-5.9-10.05-.72-2.46-1.43-4.57-4.55-3.87-3.29.74-2.92,3.51-2.28,5.61,1.06,3.44,2.78,6.67,4.17,10.02,2.98,7.18.92,19.28-4.03,23.37-.71-2.51-.11-4.83.35-7.26.48-2.57,1.13-5.68.14-7.86-4.79-10.61-4.25-23.7-14.65-31.76-1.28-1-2.03-1.08-2.75.15-1.83,3.11-3.85,6.17-5.2,9.5-1.29,3.19,1.17,5.6,2.85,8.04-1.67,1.8-3.45.15-5.17.16-.74-.63-1.61-1.15-2.2-1.89-1.97-2.46-4.32-4.17-7.56-3.02-3.46,1.23-1.74,4.4-2.15,6.77-1.07,1.25-2.48,1.86-4.07,2.1-1.82-4.94-1.5-9.65,1.55-14.04,4.63-6.67,8.82-13.6,11.16-21.42,2.16-7.2,7.89-12.14,11.23-18.56,1.7,1.01,3.41,2.03,5.11,3.04.66.2,1.12.65,1.52,1.2.88,1.21.58,3.88,2.94,3.26,2.4-.63,2.12-3.06,2.18-5.02.05-1.49-.53-2.96-.37-4.45.16-1.53.44-3.22,2.72-1.98.17,0,.34-.04.5,0,2.25.49,3.2-6.51,6.73-.85,1.38,2.21,5.17,1.95,7.36,5.36,2.5,3.88,6.42,7.36,9.57,11.14,2.32,2.78,10.79,6.01,14.03,7.69,3.91,2.03,8.63,3.48,11.23,7.65.78,1.25,1.36,2.9,3.16,2.84,6.35-.2,4.44,4.51,4.78,7.88.03.29-.16.81-.37.88-3.43,1.17-7.37,3.9-10.21,3.04-4.05-1.22-3.98,1.07-4.51,3.01-.75,2.75-.67,5.92-5.07,4.34-.75-.27-1.92.16-1.95,1.08-.21,6.16-7.49,8.02-8.3,13.8-.24,1.67-2.94,1.74-2.74,5.07,4.61-5.64,9.77-7.2,15.78-4.1.56.58.63,1.25.41,1.99-2.75,3.75-7.08,5.26-11.14,7.6,3.4,3.88,6.86-.09,10.13.4,9.66,1.27,9.92,1.26,9.98,10.93.03,5.53,3.28,5.51,7.2,5.61,7.35.18,10.33,4.13,8.6,11.03-.34,1.35-.8,2.81-2.22,3.06-4.51.79-4.64,3.97-4.54,7.49.07,2.53-.19,5.02-2.42,6.77Z"/>
      <path class="cls-5" d="m145.38,244.88c.82,2.51-.05,4.78-1.03,7.03-1.54-3.79-3.48-7.48-4.51-11.4-1.04-3.98-1.16-8.13,1.38-11.94,2.45-3.66,3.09-7.56.73-11.65-1.4-2.43-1.53-4.95.17-7.43,1.16-1.69,1.61-3.67,1.2-5.69-2.32-11.41.35-22.63,1.31-33.91.05-.62.52-1.21.79-1.81,2.86-.08,2.91,2.15,3.24,4.04.72,4.07,1.24,8.16,1.08,12.32-.07,1.81-.13,3.65.27,5.43.43,1.93,1.35,3.45,3.64,3.31,2-.13,3.13-1.61,3.07-3.31-.23-5.76,2.96-12.41-4.13-16.53-1.22-.71-1.59-2.39-1.03-3.58,1.6-3.42.1-5.16-2.9-6.46-.85-.37-1.77-1.03-1.33-2.29,5.62-14.58,12.16-28.47,26.93-36.31,3.77-2,7.4-4.26,11.1-6.4-.78,2.33-3.55,3.46-3.72,6.19-.03.41-.57,1.15-.84,1.13-6.31-.34-8.28,5.06-11.72,8.59-2.18,2.24-4.76,4.1-7.11,6.19-.59.52-1.52,1.54-1.36,1.88,2.83,5.87-2.19,5.03-5.27,5.88.72,2.79,2.23,4.4,5,3.75,2.28-.54,4.51-1.43,3.42-4.77-.3-.91.42-2.24.89-3.28.7-1.54,1.85-1.52,2.48-.06,2.72,6.28,9.94,7.11,14.05,11.68.42.46,1.62.59,1.66.97.7,5.92,7.53,6.93,9.41,11.8.64,1.65,1.83,2.63,3.27,2.62,3.74-.02,5.61,2.2,7.39,5,.93,1.46,2.04,2.83,4.47,1.39,1.82-1.08,5.23,3.39,6.59,8.01.82,2.79-1.03,3.55-2.89,4.31-.89.36-1.94.37-2.92.44-3.57.27-6.2,1.44-5.8,5.71.23,2.47-.59,3.19-3.17,2.47-3.29-.92-5.71.99-6.56,3.89-.88,3.03-2.23,3.88-5.31,3.6-2.55-.23-4.58,1.65-2.82,4.07,2.82,3.89-1.14,5.31-2.52,6.87-1.47,1.66-4.92,1.67-2.35,5.12.18.24-.15.97-.4,1.38-2.61,4.29-7.21,6.17-11.24,8.48-2.31,1.32-7.66-3.44-8.56-7.01-.24-.95-.07-2-1.05-2.65-1.94-2.06-1.25-4.66-1.39-7.07-.11-1.81.05-3.63-.11-5.44-.17-1.93-.65-3.68-3.08-3.71-2.47-.04-3.42,1.52-3.85,3.7-.68,3.49.95,7.32-1.57,10.53-3.27,2.82-5.74,11.01-4.36,14.41,4.53-3.24,5.41-3.1,9.36,1.55-4.79,1.11-6.83,4.65-8,8.98Z"/>
      <path class="cls-5" d="m143.39,434.42c.37,5.09,5.01,6.1,8.18,8.5,1.85,1.39,5.23,1.52,4.68,4.92-.52,3.22-3.7,2.69-5.87,3.54-1.16-1.07-.38-2.44-.58-3.66-.17-1.05-.67-1.79-1.72-2.09-.66-.19-1.35-.09-1.75.47-.79,1.11.18,1.73.8,2.43.73.82,1.79,1.48,1.24,2.85-1.1.04-2.28-.18-3,1-1.83,2.27-4.74.79-7.31,2.16,3.78,4.23,2.15,6.31-2.84,6.84q-6.3.51-6.51,6.07c-5.86,2.29-8.39,8.07-12.65,12.03-1.86,1.73-3.05,3.71-2.29,6.64.67,2.57-3.44,7.65-6.3,8.44-3.67,1.01-7.82-.57-9.16-3.88-1.02-2.51-2.57-4.19-5.02-5.17-4.43-1.78-8.77-3.32-11.88-7.62-1.67-2.32-5.6-2.69-8.23-4.44-2.67-1.78-3.22-3.73-.49-5.62.82-.52.12-1.05.56-.55.02.03-.07.13-.3.28-2.03,1.27-3.81,3.49-6.64,1.76,3.46-6.39,9.02-11.04,14.41-15.46,15.21-12.5,32.49-21.92,49.65-31.46,1.95,2.73.73,4.65-1.81,5.85-2.11.99-4.07,2.02-5.35,4.03-.42.82-1.72,1.01-1.61,2.27,1.52-.02,2.65-1.24,4.15-1.24,3.59-.11,7.26-.67,10.47,1.68,1.1.81,2.14.43,3.16-.3,1.26-.9,2.58-1.53,4-.25Z"/>
      <path class="cls-5" d="m167.37,441.4c-6.57,1.31-9.21-3.69-11.23-8.04-1.62-3.49-3.56-4.23-6.76-3.93-2.87-3.03-7.62-3.8-9.49-8.12-.51-1.19-1.67.19-2.54.29-1.26.15-3.03,1.46-3.06-1.29,5.75-5.05,12.73-8.2,19.17-12.15,16.87-10.35,33.91-20.4,50.89-30.57-1.53,3.51-.68,6.02,3.01,7.48,2.45.97,3.78,2.19.82,4.39-1.29.96-.83,2.37.17,3.51.97,1.11,2.01,1.64,3.48.81,1.3-.73,2.66-1.4,4.07-1.89.86-.3,1.6.24,1.98,1.09.3.7.05,1.67-.49,1.7-4.43.27-4.86,4.94-7.69,6.82-4.44,2.94-8.78,5.89-11.55,10.6-.24.4-.77.92-1.14.9-5.18-.23-6.42,4.23-8.67,7.36-.87,1.21-1.42,1.82-3.11,1.63-2.76-.32-4.88.46-2.89,3.89.51.88.57,1.55-.32,2.06-.9.52-1.62-.02-2.14-.69-2.45-3.12-3.69-1.81-4.51,1.18-1.14,1.11-2.51.49-3.77.46-2.75-.05-4.23,1.25-3.6,3.91.7,3-.25,5.75-.62,8.59Z"/>
      <path class="cls-5" d="m135.39,460.36c1.29-.68,2.64-1.2,4.45-1.01-.36-.79-.43-1.28-.72-1.52-1.18-.98-3.54-1.36-2.95-3.3.66-2.16,2.72-2.32,4.9-1.91,1.37.26,2.87-.14,4.31-.25,3,3.33,6,6.65,9,9.98.22,2.39-1.62,3.82-3.13,4.66-4.94,2.76-7.3,7.52-10.07,11.96-1.78,2.85-4.11,4.88-7.43,5.34-8.21,1.13-11.73,8.17-16.88,13.14-1.24,1.2-.3,2.78.07,4.23.84,3.33-.44,4.76-3.91,3.92,2,1.09,4.06,1.84,6.4,1.66,2.23-.17,4.52-.07,5.47,2.43.95,2.5-.78,4.02-2.47,5.45-13.66,0-27.33,0-40.99,0-1.66-1.24-4-2.04-3.67-4.71.35-2.87,2.64-3.86,5.12-4.46-.47-1.14-1.8-1.19-2.05-2.26-.07-5.2,4.38-3.03,6.8-4.18,1.26-.63,3.43.33,3.84-1.47.36-1.57-1.32-2.5-2.56-3.31-2.97-1.95-5.53-4.78-9.77-3.75-1.55.38-2.76-.83-3.39-2.35-.76-1.84.62-4.65-2.27-5.5-2.67-.79-3.15,2.68-5.33,2.98-1.65.2-2.95-.21-3.45-1.99.62-3.59-1.94-6.45-2.27-9.82.2-2.52,2.15-3.69,3.9-5.01,3.94.45,6.31-4.44,11.17-3.64-.8,1.01-1.04,1.4-1.36,1.71-1.26,1.23-4.2.51-4.24,2.84-.04,2.46,2.79,2.42,4.35,3.49.82.56,1.78.9,2.66,1.37,2.17,1.16,4.66,1.24,5.64,4.74.47,1.67,4.66,3.17,7.63,3.96,3.62.95,6.7,2.56,7.38,7.01.61,3.93,4.33,2.06,6.62,2.77,3.09.96,2.73-2.9,4.45-3.63,2.67-1.13,2.91-2.01,1.53-4.72-1.84-3.61,2.41-5.17,3.93-7.64.65-1.06,2.49-1.56,2.85-2.62,1.56-4.65,4.9-6.81,9.46-7.59q-.8-5.63,7-6.98Z"/>
      <path class="cls-5" d="m81.42,504.25c.99.05,1.99.01,2.95.19.83.15,1.59.7,1.55,1.63-.05,1.1-1.03,1.08-1.84,1.14-.82.07-1.69-.05-2.46.18-3.19.93-3.78,3.23-1.41,5.71.6.62,1.1,1.17,1.2,2.03-9.99.06-19.99.11-29.98.17-2.29,0-4.38-.06-3.95-3.4,1.74-13.31,6.77-25.37,13.76-36.71.24-.39.77-.6,1.17-.89,2.08,2.64,4.47,5.17,3.01,8.99-.76,1.15-.64,2.83-1.61,3.07.68-1.71,3.13.22,4.61-1.07,1.4-2.77,2.85-5.34,6.66-3.16,1.41.81,2.31,1.52,1.77,3.47-.93,3.32-.15,5.14,3.97,4.1,3.43-.87,12.11,5.23,13.02,8.67.38,1.42-.34,1.79-1.46,1.85-1.32.07-2.64.03-3.97.04-1.67.98-3.49.34-5.23.47-2.64.2-3.05,1.42-1.76,3.52Z"/>
      <path class="cls-5" d="m304.31,115.2c-2.52,5.14-6.85,5.12-11.66,4.28-4.28-.75-5.07.25-3.42,4,.53,1.2,1.79,2.5.07,3.35-1.98.98-4.34-.35-4.38-2.01-.2-7.3-6.51-7.42-10.86-9.78-2.48-1.35-4.86-2.68-7.07-4.54-3.89-3.28-9.33-3.53-13.61-6.2,14.41-1.89,27.13,4.53,40.4,8.23,3.49.97,6.91,2.22,10.53,2.66Z"/>
      <path class="cls-5" d="m147.32,161c1.53.92,2.97,2.12,4.62,2.7,3.16,1.11,4.38,2.05,1.18,4.89-1.35,1.2-1.75,3.88,1.36,4.43,2.45.43,3.54,2.24,3.65,4.14.29,4.61.32,9.27-.04,13.87-.19,2.41-1.78,4.06-4.75,4.04-3.27-.02-4.54-1.99-4.81-4.58-.35-3.28.22-6.66-.24-9.91-.6-4.22.42-8.88-2.88-12.49-.19-2.58.4-4.95,1.91-7.08Z"/>
      <path class="cls-5" d="m134.3,420.31c1.16,1.77,2.35.46,3.42-.06,2.7-1.31,2.67-1.36,3.27,1.66.24,1.2,1.46,1.12,2.19,1.67,2.26,1.72,5.55,2.42,6.21,5.85-2,1.66-4,3.33-6,4.99-3.17-1.04-3.58,3.47-5.84,3.14-2.05-.29-3.01-3.38-5.77-3.17-2.12.16-4.25.03-6.38.03-.63-1.22-3.29.6-3-2,.28-2.76,1.77-4.63,4.51-4.88,3.52-.32,3.59-2.59,3.47-5.16.74-1.76,2.3-1.98,3.92-2.08Z"/>
      <path class="cls-5" d="m120.33,308.83c.76-1.86,2.29-2.21,4.07-2.1,4.83,8.66,10.96,16.4,16.85,24.34,3.63,4.9,3.01,9.1-1.29,12.82,1.95-7-.17-11.24-7.42-17.22-5.7-4.7-11.42-9.66-12.21-17.84Z"/>
      <path class="cls-5" d="m136.31,304.87c1.66-2.04,3.47.63,5.17-.16,8.94,7.69,8.76,11.88,5.46,20.38-2.26-8.14-5.32-14.83-10.63-20.22Z"/>
      <path class="cls-5" d="m365.27,193.01c-2.81.73-4.16-1.43-5.81-2.96-2.75-2.55.75-3.54,1.3-5.28.74-2.32.64-4.93,2.56-6.8,2.24,4.81,1.98,9.93,1.94,15.03Z"/>
      <path class="cls-5" d="m173.34,308.84c-.78-3.37-.76-6.44,3.03-8.1,1.78,2.93,1.6,6.95,5,8.98-1.34,1.59-3.66.77-5.12,2.06-1.25-.7-2.24-1.66-2.91-2.94Z"/>
      <path class="cls-5" d="m188.25,360.6c1.02-.33,2.04-.67,3.05-1-.18,2.28-1.16,4.07-3.46,5.51-.65-1.71-.93-3.14.4-4.51Z"/>
      <path class="cls-5" d="m189.32,339.66c-1.28-1.41-1.22-2.89-.14-4.69,1.88,1.1,2.14,2.84,2.31,4.62-.72.02-1.45.04-2.17.07Z"/>
      <path class="cls-5" d="m325.3,426.44q4.29-5.38-4-11.97c-1.23-1.1-1.7-2.5-1.67-4.11,1.37-3.51,2.03-7.71,7.73-4.32,1.49.88,3.18-2.35,4.61-3.88,3.93-4.21,8.26-7.13,14.36-4.66,6.26,3.78,12.61,7.41,18.74,11.39,2.93,1.9,5.89,3.6,9.2,4.68,6.59,6.06,14.1,10.94,21.6,15.68,3.62,2.29,7.21,4.66,10.75,7.07,3.25,2.21,6.44,4.01,10.53,3.13.66,1.24,1.69,1.92,3.1,2.03,3.51,2.87.14,6.33.75,9.53.48-2.15.24-4.84,3.19-5.02,2.46-.15,3.96,1.75,4.58,3.88.54,1.85,1.74,2.32,3.24,3.18,6.13,3.5,12.72,6.41,17.14,12.38,2.71,3.67,2.53,4.56-2.01,5.82q4.48-.38,6.06,3.76c1.03,2.72,3,4.9,5.06,6.66,5.69,4.86,9.03,10.87,10.45,18.08.2,1.02.76,1.82,1.49,2.52.33,1,.65,2,.98,2.99-3.28,1.02-6.56,2-9.79,3.17-2.57.92-6.27.1-5.46-2.75,1.69-5.92-1.93-9.26-4.42-13.36-2.87-4.72-5.79-8.55-11.84-10.43-4.82-1.5-9.82-4.95-12.67-9.82-1.23-2.1-2.14-3.04-4.58-2.24-2.83.93-4.72.48-4.96-3.27-.28-4.34-4.29-5.43-7.43-7.16-3.1-1.71-3.98,1.15-5.55,2.63-3,2.82-6.59,5.15-7.61,9.55-.15.64-.69,1.26-1.35,1.37-3.95.64-5.82,2.97-6.82,6.82-.65,2.5-3.64,2.53-5.91,3-1.94.41-4.2.39-3.07,3.59.38,1.09-.4,2.9-1.32,2.96-4.06.28-5.38,5.02-9.33,5.35-1.37.11-2.85.83-3.03,2.24-.56,4.39-3.19,6.2-7.78,6.13,3.1,2.64,6.33,3.76,9.45,5.1,3.33,1.42,4.75,3.57,2.56,7.02-5,0-10,0-15,0-1.56-1.23-2.97-2.71-4.62-3.74-3.33-2.1-6.84-3.83-9.83.76-1.03,1.58-2.95,2.08-4.52,2.99-3.33,0-6.66,0-9.99,0-.86-2.77,1.74-4.75,1.67-7.35.22-1.39.18-2.89,1.6-3.77,2.52.13,6.36,2.76,5.72-3.04-.11-1.79.55-3.16,1.8-3.79-1.83,1.37-4.16,2.63-7.04,2.13-3.22-.96-4.64-2.71-2.35-5.81,1.61-2.17.67-3.72-1.4-4.12-5.08-.99-8.06-4.34-10.64-8.34-2.47-3.83-5.68-6.44-10.51-6.61-1.77-.06-3.06-.64-3.15-2.96-.18-4.4-3.19-5.52-6.91-4.75-2.17.45-4.2.63-6.39.31-6.37-.95-8.59.35-11.85,5.94-1.94,3.33-5.69,4.99-8.94,5.83-4.2,1.09-6.28,3.25-7.51,6.97-.64,1.93-1.99,3.58-4.04,2.64-3.44-1.58-5.61.7-8.23,1.88-1.96.89-2.95,1.78-1.92,4.15,1.7,3.89-.35,5.97-3.99,6.89-1.46.37-2.98.53-4.11,1.63-.93.91-2.25,1.85-1.04,3.32.78.95,1.75,2.57,3.21,1.54,2.16-1.52,4.06-1.91,5.43.59,1.34,2.45.82,4.83-1.38,6.71-5,0-10,0-15,0-1.02-.89-1.26-2.28-2.09-3.28-2.45-2.94-5.99-3.12-8.21.03-1.51,2.14-3.46,2.72-5.65,3.25-2.68,0-5.36,0-8.03,0-5.57-4.13-5.66-5.32.17-9.14,3.22-2.11,5.94-4.72,8.88-7.11.86-.7,1.38-1.56.51-2.52-1.12-1.23-1.53-.14-2.11.71-1.95,2.84-4.42,2.14-5.45-.29-2.81-6.64-8.88-9.56-14.63-11.61-7.16-2.55-10.01-6.91-10.36-13.84,3-3.33,6-6.65,9-9.98,3.1-1.5,4.22-.14,4.2,2.88,2.41,4.94,4.04,10.6,11.01,11.07,2,.14,3.18,1.6,4.08,3.27,1.32,2.43,3.36,4.61,5.86,5.08,4.13.78,7.9.93,9.32,6.14.51,1.88,2.85.72,3.82-.91,3.37-5.67,9.23-8.61,14.1-12.59,1.47-1.2,2.24-2.79,3.59-3.96h2c4.8,1.18,9.59,4.83,14.48.55,2.68-2.35,5.33-4.82,7.55-7.59,1.48-1.84,2.97-3.36,5-4.62,2.89-1.79,6.05-3.39,7.58-6.81.7-1.57,2.13-2.51,3.78-3,4.06-1.22,6.66-3.45,7.98-7.87,1.33-4.48,4.04-1.26,6.17-.12,2.51,2.07,7.88,3.03,3.14,7.95-4.72,2.9-4.76,2.95-.41,6.43,2.58,2.06,5.12,4.02,7.17,6.74,2.22,2.94,5.81,3.46,9.41,3.48,7.93.06,11.21,3.31,11.53,11.18.01.33.33-.2.44-.35.19-.26.39-.5.71-.65,2.81-.9,4.11.79,5.16,2.95,3.99,3.81,6.87,8.8,12.14,11.28.9-1.02-.22-1.79-.41-2.67-.9-4.25,1.32-6.39,5.6-4.8,2.45.91,2.91.16,3.18-1.86.62-4.65,2.94-6.84,7.87-5.57,2.01.52,3.33-1.09,5.28-2.21-2.07-1.5-5.34.51-6.08-2.62-.39-1.65.12-2.94,1.78-3.64,2.33-.58,4.6-.57,6.8.71-.7-1.49-1.29-3-.84-4.67,2.36-4.54,7.02-4.53,11.11-5.31,3.1-.59,4.89-1.26,4.06-5.04-.73-3.32,1.22-5.63,4.22-7.1,1.41-.69,3.52-1.16,2.8-3.4-.57-1.78-2.3-2.55-4.03-2.19-2.68.57-3.56-.8-4.92-2.82-1.92-2.86-4.28-6.12-8.8-4.04-1.59.73-3.05.23-3.84-1.28-1.18-2.27-1.02-4.38,1.82-5.95-3.38.51-5.72-.1-7.11-3.33-1.22-2.84-3.98-3.97-6.93-4.09-3.45-.14-5.28-1.5-5.1-5.16.15-3.06-2.05-4.99-4.48-5.07-2.87-.09-5.99-5.39-8.81.16-.81,1.59-2.8,1.59-4.42,1.93-5.42,1.11-8.01,4.66-8.69,9.95-.44,3.38-1.3,6.45-5.91,4.65Z"/>
      <path class="cls-5" d="m346.34,397.49c-6.06-.36-11,1.51-14.44,6.81-.88,1.36-2.29,2.39-3.53,3.48-.62.55-1.37.88-2.23.27-2.97-2.1-2.97-2.09-4.73.78-.35.56-.73,1.1-1.1,1.65-.25,3.36-3.35,1.96-5,2.99-1.25.68-2.54,1.15-4,1q-5.93-1.77-7,4.99c1.45,1.51,2.88,2.77-.88,3.05-5.39.4-7.21,2.48-7.42,7.68-.06,1.39-.54,2.85-1.71,3.39-1.63.75-1.74-.93-2.07-1.96-.39-1.24-1.15-2.09-2.48-2.03-1.83.07-2.28,1.67-2.98,2.98-.76,1.4.07,4.08-2.88,3.77-2.82-.3-1.86-2.29-2.01-4.06-.14-1.77-1.78-2.72-3.61-2.79-1.98-.07-3.96-.02-6.21-.02.25-2.52,3.98-4.21,1.39-6.75-2.16-2.12-4.8-1.24-6.98-.11-3.22,1.68-4.67-1.09-6.39-2.39-3.47-2.63-6.54-5.79-9.77-8.74,2.72-4.35,2.62-4.84-1-4.99-1.04.54-1.75,2.75-3.18,1.28-2.12-2.18-6.37-2.11-6.7-5.98-.2-2.32-.43-4.53-2.67-6.78,3.67-.25,5.54-1.57,6.48-4.2.32-.89.96-1.86,1.73-2.37,7.67-5.03,12.02-13.03,17.89-19.66,1.16-1.31,2.57-1.92,3.37.31.67,1.87,2.46,2.77,3.12,1.18,1.58-3.81,5.62-4.12,7.95-6.67.18-.27.39-.73.61-.73,6.68.03,7.73-3.78,6.38-9.24.19-1.87,1.01-3.24,3.09-2.73,1.72.42,2.11,1.81,1.53,3.46-1.14,3.2,1.88,3.13,3.38,4.26-1.6,3.27,1.23,3.24,3,3.99l1,1c3.24.7,4.93,1.94,1.66,4.84-1.23,1.1-1.4,2.54-1.36,4.04.04,1.64-.05,3.47,2.03,4,2.24.57,3.25-1.01,4.06-2.7.78-1.63,1.09-3.43,1.72-5.12.24-.4.54-.76.89-1.08,2.78-.39,3.93-2.08,4.02-4.78.08-2.45-.07-4.82-2.65-5.89-4.1-1.7-6.08-5.62-8.42-8.74-2.51-3.34,1.69-1.97,3.06-2.53,4,.78,7.93,1.69,8.43-4.46.16-1.9,2.31-2.05,3.96-2.35,1.09-.2,2.57-.06,2.93-1.42.48-1.8-1.4-1.94-2.33-2.74-1.37-.32-3.99.79-3.58-1.72.37-2.25,2.98-.92,4.58-1.27,2.51-.95,5.26.13,7.77-.93,2.94-1.24,2.67-2.57.22-4.06-1.44-4.22.96-3.82,3.75-3.19,6.06,1.36,10.12-1.76,10.24-7.78-1-1.16-2.71-1.97-2-3.99,3.19-2.9,7.34-5.04,8-9.98,3.5-.51,6.6.18,9,2.99,2.29-.33,4.57-.66,6.86-1-1.8,4.56-4.89,8.21-8.12,11.8-2.02,2.24-4.22,3.65-7.37,3.25-1.52-.19-2.93-.06-3.75,1.68-.89,1.88.05,3.01,1.09,4.43,4.18,5.66,2.49,16.28-3.36,20.96-1.07-4.14.74-8.57-1.5-12.99-3.49,5.28-5.94,10.79-10.4,14.81-2.21,1.99-4.39,4.17-6.96,5.58-9.98,5.47-10.56,21.21,1.01,27.75,9.04,5.11,18.26,10.1,26.54,16.49Z"/>
      <path class="cls-5" d="m370.28,515.14c.24-3.23,0-5.75-4.31-6.29-2.65-.33-4.79-2.78-7.69-3.2-1.14-.17-2.02-1.13-1.87-2.56.16-1.55,1.24-1.86,2.48-1.79,3.29.2,5.89,0,5.61-4.56-.13-2.14,1.86-3.47,4.15-3.41,4.23.1,5.62-1.37,2.71-5.69,2.52,1.98,4.69,2.97,6.81.64,2.06-2.25-.31-3.44-1.88-5.38,3.03-.59,5.68-1.11,8.33-1.63,2.13-.42,3.83-1.25,3.64-3.86-.25-3.52,2.13-4.52,4.94-5.03,1.1-.2,2.72.12,2.82-1.4.31-4.82,4.05-6.81,7.26-9.27.26-.2.48-.46.75-.65,1.55-1.07.87-4.35,2.95-4.16,2.32.21,4.63,1.6,6.74,2.82,1.84,1.07,3.38,2.64,5.08,3.96.75.58,1.12,1.2.51,2.08-.67.96-1.58,2.03-.42,3.05,1.16,1.02,2.46.46,3.66-.3,3.25-2.05,5.01-.81,5.25,2.7.11,1.66,1.18,2.21,2.2,3.02,2.68,2.13,6.39,2.92,8.16,6.26.19.36.84.69,1.27.68,8.11-.19,10.66,6,13.64,11.73.38.73.74,1.65,1.39,2.03,3.86,2.28,4.23,5.56,2.62,9.24-1.39,3.15,1.88,4.17,2.62,3.57,2.11-1.71,5.3-.4,6.99-3.29,1.35-2.3,2.77,1.5,4.5.83,1.63,2.31.97,5.12,1.65,7.67.84,3.14-2.14,1.94-3.61,2.39-30.33-.03-60.67-.05-91-.09-2.65,0-5.3-.05-7.95-.08Z"/>
      <path class="cls-5" d="m371.42,272.75c-2.5-.07-5.72.76-4.46-3.82.29-1.04-.79-1.66-1.68-2.1-4.24,1.99-4.59,6.3-6,9.98-2.97,6.53-4.47,7.03-10.18,3.22-1.68-1.12-3.45-1.76-5.39-2.34-2.75-.83-6.94-.86-5.22-6.08.56-1.71-1.4-1.86-2.76-1.46-3.51,1.05-6.06,0-7.99-3.12-.56-.91-1.66-1.68-2.68-2.06-2.09-.76-3.41-1.59-1.59-3.85.76-.94.72-1.86-.24-2.58-1.03-.77-1.87-.2-2.54.65-.71.91-1.39,2.18-2.73,1.1-1.04-.84,0-1.62.34-2.53,1.2-3.11-1.05-4.2-3.26-3.55-3.9,1.15-5.17-.53-5.83-3.84-.69-3.49-4.45-2.93-6.6-4.51-3.44-2.52-2.17-5.26-.44-6.47,2.53-1.77,4.27-4.07,6.34-6.16.72-.72,1.62-1.55,2.61-1.13,4.08,1.73,5.91.19,6.31-3.93.17-1.76,2.54-1.9,2.96-3.08,1.74-4.83,4.03-8.61,9.71-9.74,1.61-.32,2.64-3.09.19-4.77-1.1-.75-1.93-1.38-.52-2.58.96-.82,1.78-2.34,3.24-.78,1.82,1.95,3.54,2.27,5.42.07,1.83-2.14,1.56-3.82-.87-5.24-1.54-.9-.86-1.87,0-2.81,1.35-1.49,2.86-2.67,4.91-2.98,1.07,1.64-.35,2.23-.99,3.02-.8,1-1.44,1.93-.2,2.98,1.19,1.01,2.23.16,3.13-.5.47-.35.62-1.11.97-1.66,2.78-4.46,4.52-4.81,7.71-.58,2.15,2.84,6.11,3.65,7.21,7.85.65,2.47,3.16-1.68,5.03-.38.27,5.65-.27,11.26-1.55,16.74-.63,2.7.37,3.23,2.68,3.21,3.86-.03,7.36-1.54,12.17-3.1-2.69,4.79-5.95,7.17-10.03,8.37-3.16.93-4.54,2.43-4.45,5.96.09,3.46,1.62,4.43,4.63,5.13,4.23.99,7.26,4.14,9.68,7.49,4.93,6.84,9.56,13.9,12.73,21.81.83,2.07,1.36,4.05.45,7.55-2.06-12.95-12.61-19-18.26-28.42-2.21-3.68-6.77-2.94-10.4-3.7-1.18-.25-2.42.56-2.29,1.98.11,1.22,1.2,1.03,2.27,1.14,7.57.76,9.33,3.5,7.72,10.99-.76,3.54-3.22,7.33.75,10.59Z"/>
      <path class="cls-5" d="m470.21,502.25c-1.25-.08-2.6-.52-2.68-1.79-.62-9.86-8.66-15.04-13.5-22.28-2.74-4.1-4.93-7.12-10.59-5.97.68-1.25.78-1.55.97-1.76,1.57-1.68,5.59,1.12,5.32-1.46-.27-2.6-2.91-5.42-5.22-7.24-3.58-2.83-7.8-4.85-11.69-7.31-.91-.58-1.65-.91-2.74-.51-1.97.71-2.91.29-2.15-2.06.8-2.48-1.29-3.53-2.72-4.8-.69-.61-1.59-.48-2.19.29-1.38,1.79-.72,3.39.51,4.95.25.32.22.87.34,1.39-5.01-1.7-5.44-2.74-3.11-6.97,1.01-1.84-1.01-3.44-.51-5.26,21.65,12.21,38.86,28.52,48.08,52.14,1.08,2.76,2.05,5.59,1.88,8.64Z"/>
      <path class="cls-5" d="m368.29,284.75c2.74-2.53,6.32.51,9.68-1.48-2.68-1.96-6.99-3.13-3.7-7.48,3.11,4.74,6.76,8.91,11.55,12.12,3.82,2.56,5.44,6.39,5.52,11.09.1,5.97.45,11.94-1.3,17.72-.57,1.89-.59,4.39-3.59,5.37,0-4.25-.46-8.35.09-12.32,1.42-10.18-.58-14.79-9.61-20.1-2.86-1.68-5.77-3.29-8.65-4.93Z"/>
      <path class="cls-5" d="m417.15,439.44c-3.14,2.56-5.84,1.56-8.89-.54-9.72-6.7-19.65-13.1-29.42-19.74-2-1.36-4.18-2.82-4.56-5.6,13.66,8.12,27.33,16.23,40.98,24.37.69.41,1.26,1,1.89,1.51Z"/>
      <path class="cls-5" d="m360.26,300.74c-.65-.93-1.13-2.08-1.98-2.76-3.63-2.91-3.58-5.05.95-6.88,1.64-.66,1.6-2.68,2.31-4.1.81-1.65.98-5.49,4.71-3.03-1.99.74-1.77,2.46-2.02,4.11-.66,4.41-1.67,8.74-3.97,12.66Z"/>
      <path class="cls-5" d="m182.37,471.33c.58.57,1.68,1.16,1.65,1.69-.42,6.64,3.75,8.88,9.18,10.88,4.38,1.61,8.24,4.64,12.36,6.99,1.1.63,1.79,1.37,1.8,2.71,0,2.19.81,4.32,3.18,4.22,2.65-.12,1.12-2.91,1.77-4.35,2.34-.27,3.17,1.67,4.51,2.8,1.4,1.18,1.22,2.25-.44,2.99-4.1,1.81-6.21,6.15-10.4,7.97-3.31,1.43-5.99,3.53-.98,6.52.29.18.25.92.36,1.4-27.65,0-55.3,0-82.95,0,.29-.76.45-1.61.91-2.25.83-1.16,1.44-2.28.42-3.58-.95-1.2-2.5-1.45-3.63-.95-4.14,1.83-6.34-1.82-9.39-3.03-.9-.36-1.28-1.09-.65-1.95.69-.95,1.41-.41,2.09.13,1.11.88,2.23,2.61,3.72,1.02,1.29-1.38-.03-2.64-.93-3.87-.88-1.19-.68-2.63.36-3.64,4.01-3.9,7.51-8.33,12.04-11.69,1.74-1.29,3.57-2.17,5.92-2.1,2.67.08,5.25-1.41,6.1-3.65,1.45-3.82,4.46-6.43,6.48-9.77,1.94-3.2,6.32-4.21,8.55-7.45,1.09-.07,1.7-.7,2.3-1.59,2.34-3.5,6.98-4.49,10.55-2.46,1.87,1.07,2.93,2.69,1.59,4.42-1.91,2.47-.93,2.54,1.44,3.31,4.17,1.37,8.09,3.49,12.11,5.3Z"/>
      <path class="cls-5" d="m244.34,515.14c.28-1.94,1.56-3.77.8-5.8-.26-.7-.9-1.42-1.56-1.77-.75-.4-1.62-.17-2.02.8-.48,1.17-.6,3.97-2.47,1.75-1.47-1.74-5.78-2.74-3.32-6.51,1.17-1.79,2.67-3.16,5.17-3.4,5.08-.5,5.68-1.92,3.12-6.2-1.56-2.61.44-3.9,2.24-4.42,2-.58,3.77-1.09,4.91-2.95,1.14-1.87,2.13-.43,3.26.12,2.52,1.22,4.23,1.71,5.18-2.26.8-3.39,2.72-6.05,7.62-6.9,2.84-.49,8.66-1.56,9.39-7.88.47-4.07,5.77-3.98,9.33-4.26,3.46-.27,6.72,1.39,10.49-.68,3-1.65,7.54,4.22,6.73,8.61,8.37-1.56,12.29,4.33,15.81,10.02,1.94,3.13,4.44,4.35,7.45,4.2,3.16-.15,2.61,2.56,3.81,3.82,1.67,1.77-.78,1.92-1.56,2.68-2.65,2.61-1.06,3.57,1.58,4.17,1.86,1.28,5.4-.8,6,2.99,1.75,2.55-.11,4.03-1.85,5.13-2.24,1.41-2.8-1.31-4.15-2.13-3.44.55-.81,2.63-1,3.99-.32,2.59-2,4.59-2.97,6.9-27.33,0-54.65,0-81.98,0Z"/>
      <path class="cls-5" d="m336.32,515.14c2-2.14,4.03-4.27,6.01-6.43,3.24-3.54,5.7.65,8.37,1.2,1.71.35,4.2,2.47,4.58,5.23-6.32,0-12.64,0-18.96,0Z"/>
      <path class="cls-5" d="m213.39,515.14c1.15-1.31,3.46-1.03,4.09-3.15,1.03-3.5,3.64-4.45,6.89-3.56,3.28.9,5.5,2.86,4.98,6.7-5.32,0-10.64,0-15.96,0Z"/>
      <path class="cls-5" d="m335.92,190.09c-4.57-2.41-6.61-.21-7.85,3.43-.65,1.93-1.77,3.14-3.7,4.22-4.49,2.51-6.11,7.48-8.65,11.61-.96,1.57-.38,3.23,1.01,4.49,1.29,1.17,3.64,2.16,2.08,4.28-1.59,2.16-3.06-1.11-5.13-.69-.36,2.18.6,6.11-3.48,5.16-3.21-.75-3.52-3.58-2.01-6.44.48-.91.72-1.6-.66-2.29-5.31-2.66-6.08,2.52-8.24,4.84-2.28,2.45-.16,3.75,2.22,4.69,1.07-1.16-1.01-3.69,1.37-3.98,2.34-.29,3.37,1.86,4.33,3.52.6,1.04,2.52,2.88,1.47,3.18-4.06,1.17-5.51,7.4-10.96,5.52-.94-.32-2.1.12-1.79.91,1.57,4-3.83,5.33-3.26,8.9.06.35-.95,1.29-1.28,1.21-5.44-1.35-6.45,3.9-9.53,6.07-2.51,1.76-.72,3.15-.5,4.7.18,1.25.78,2.03,2.39,1.76,2.41-.41,2.28-1.64,1.76-3.53-.4-1.47.78-2.51,1.97-3.15,1.59-.86,1.82.9,2.61,1.57,2.45,2.11,4.58,4.16,6.17,7.35,1.07,2.16,5.3,3.94,8.8,4.43.98.14,2.59,0,2.83.49,2.29,4.84,7.96,5.27,11.22,8.78,1.13,1.21,1.91,2.16,1.63,4.25-.61,4.51,1.89,6.07,6.42,4.48,1.22-.43,2.57-1.53,3.48.13.98,1.78-1.03,1.52-1.79,2.15-2.1,1.75-1.15,7.36,1.4,8.44,1.46.62,4.64-.21,4.29,1.07-.71,2.56-.43,6.43-2.93,7.51-3.6,1.55-5.35,6.14-10,5.74-1-.09-2.19.8-1.9,1.86,1.03,3.79.07,5.38-4.09,4.62-1.14-.21-2.07.83-2.39,2.14-.51,2.11-1.86,3.46-3.95,4.1-.46.14-1.29.51-1.27.62,1.53,6.59-6.01,5.21-7.94,8.97-1.32,2.58-4.41,3.79-5.49,7.2-1.26,3.99-6.04,3.92-8.37.3-2.06-3.2-4.86-6.02-8.02-7.52-2.73-1.29-2.17-2.39-1.95-4.39.5-4.69-1.67-6.82-6.11-5.82-3.94.89-7.07-.06-9.89-2.82-2.5-2.46-5.32-4.48-8.75-5.53-1.43-.44-3.47-.9-3.61-2.33-.35-3.5-2.92-3.23-5.2-4.03-2.44-.86-5.55-2.3-.72-4.56,1.45-.68,1.55-1.67.78-2.79-.75-1.08-2.03-1.54-3.04-.66-2.35,2.04-4.45,1.34-7.56-.67,8.83-2.29,11.47-10.31,16.99-15.4,4.32-3.98,10.56-4.24,15.91-6.23,1.85-.69,3.69-.53,3.14-3.17-.73-3.54,1.58-2.94,3.6-2.66,4.2.58,6.95-2.03,6.39-6.19-.2-1.47-.62-2.9-.87-4.36-.18-1.04-.52-2.05-1.61-2.27-1.48-.3-1.99.83-2.34,2.01-.09.32-.11.72-.32.93-1.08,1.08-1.21,3.65-3.33,3-2.02-.62-2.79-2.76-3.24-4.74-.39-1.74-.09-3.33,1.86-4.09,4.96-1.94,7.61-7.29,12.84-8.76,2.52-.71.33-3.44,2.17-4.45.43.23.87.4,1.25.68,1.08.78,1.17,3.42,3.12,2.3,1.43-.82-.06-2.42-.38-3.61-.48-1.8-.7-3.26,1.67-3.78.92-.2,1.31-.99,1.29-1.89-.06-3.12,1.54-3.16,3.87-2.21.91.37,2.09.42,2.74-.53.66-.97-.19-1.8-.51-2.73-1.19-3.5-2.87-5.13-6.96-3.65-2.86,1.04-6.5-.95-8.82,2.94-1.12,1.88-2.57-.56-3.34-1.47-2.26-2.67-3.4-6.15-7.84-6.8-2.05-.3-1.26-3.78-1.86-5.76-1.33-4.44-1.4-4.74-4.65-1.66-2.16,2.04-3.42,1.7-5.31-.2-2.32-2.34-5.22-4.12-5.49-7.9-.07-.96-1.23-2.18-2.09-1.49-2.87,2.29-4.06-.75-5.9-1.59-1.78-.81-2.83-2.76-5.03-3.06-4.23-.56-3.98-4.41-5.05-7.25-.12-.33.13-1.14.32-1.18,4.7-1,7.11-5.08,10.56-7.75.25-.19.65-.45.87-.37,5.75,2.12,6.14-1.79,7.03-5.78.46-2.05,1.43-4.5,4.77-3.87,2.54.48,3.5-1.44,3.69-3.6.4-4.48,2.56-7.11,6.72-9.3,3.08-1.62,4.62-5.68,8.34-7.32,3.48-1.54,6.65-2.94,10.49-1.25,1.51.66,3.13,2.57,5.01-.23.95-1.42,2.37.5,2.96,1.52,1.79,3.09,3.01,6.65,7.76,6.04.94-.12,1.65,1.13,1.65,2.2-.02,4.4,3.4,4.7,6.44,5.42,1.28.3,2.63.32,3.87.72,1.27.4,2.57,1.08,2.58,2.68,0,1.68-1.48,1.45-2.54,1.74-1.02.27-2.09.82-1.67,1.99.41,1.15,1.6.83,2.58.55,3.96-1.15,9.25,1.58,9.7,5.53.41,3.58,2.39,3.93,5.12,3.77,4.13-.25,7.24.21,5.14,5.72-.47,1.23.22,2.89.48,5.34Z"/>
      <path class="cls-5" d="m325.3,426.44c3.19,0,5.1-1.36,4.86-4.78-.35-5.07,3.8-10.46,9.19-11.04,2.81-.31,4.76-.77,5.4-3.84.21-.98,1.42-2.87,2.27-1.62,2.4,3.52,6.92,2.04,9.68,4.8,1.68,1.68,3.01,2.76,2.22,5.33-.79,2.57.41,3.49,3.1,3.43,4.22-.1,7.92,1.2,9.26,5.75,1.14,3.88,5.51.44,7.03,3.54-1.36.64-3.51.75-3.04,3.27.22,1.2.36,2.52,1.68,2.73,2.09.33,3.16-1.21,3.98-3.6,2.24,4.51,8.69,4.18,8.76,10.01,0,.67,1.42-.03,2.15-.27,3.51-1.18,5.67,1.21,6.74,3.58,1.17,2.6-1.81,3.55-3.68,4.24-4.01,1.49-5.32,3.65-3.76,7.96,1.4,3.87-1.98,4.22-4.61,4.4-4.17.28-7.95,1.45-11.25,4.04.29,5.33-4.01,4.24-7,4.99-1.6,2.87-1.6,4.56,2.44,3.33,1.5-.46,3.21-.67,3.94.97.93,2.09-1.18,2.09-2.34,2.87-2.32,1.57-4.23,3.22-7.32,1.1-1.14-.78-3.2.45-3.7,2.38-.37,1.42-.65,2.87-.89,4.33-.41,2.54-.49,5.48-3.67,1.48-1.11-1.4-2.84-1.72-4.41-.38-1.66,1.41-1.09,2.88-.02,4.35.87,1.19,3.03,2.27.32,3.8-1.96,1.11-2.53-.87-3.69-1.35-4.26-1.75-5.13-6.87-9.33-8.41-1.01-.37-1.25-1.47-1.31-2.51-.35-3.19-1.62-4.85-5-2.99-.02.16.01.37-.08.48-.17.21-.41.35-.62.52-.1-.61-.19-1.22-.31-1.82-1.13-5.79-5.07-9.21-10.86-8.97-5.22.22-9.11-1.1-12.24-5.86-2.54-3.86-7.84-5.4-10.27-9.75,1.49-1.64,3.75-1.45,5.4-2.54,1.17-.88,2.47-1.52,2.46-3.41-.04-6.9,1.58-9.05,8.1-11.05.7-.21,1.17-.59,1.52-1.15.26-.42.41-.89-.02-1.82-2.36,4.51-5.15,1.77-7.85.65-2.24,3.42-2.4,8.32-7.21,9.8-2.05-.57-4.92-4.44-4.88,1.93.02,2.73-3.05,5.34-6.36,6.03-2.55.54-4.68,1.53-5.72,4-1.53,3.64-5.05,4.97-8.04,6.73-1.51.88-2.62,1.71-3.49,3.2-2.16,3.71-5.33,6.57-8.86,8.86-5.3,3.45-9.3,2.8-14.62-1.83,3.11-.95,5.43-2.55,7.01-5.7,1.89-3.77,7.1-3,10,1.21,1.38-.58.79-1.58.49-2.46-1.11-3.32.49-4.84,2.92-7.28,4.94-4.97,12.16-7.02,15.88-13.61,2.09-3.71,4.69-8.06,10.24-8.16.84-.01,2.13-.78,2.42-1.51,2.52-6.42,9.48-7.03,14.15-10.58,2.37-1.8,6.29-.29,8.35,2.97.7,1.1,1.62,2.26,3.16,2.02,1.62-.26,1.23-1.69,1.34-2.79Z"/>
      <path class="cls-5" d="m216.35,276.8c-4.48-.39-4.97-4.93-7.42-7.38-4.2-4.2-9.09-7.1-14.33-9.47-3.39-1.54-6.18-3.11-6.25-7.29-.02-.95-.36-2.8-1.07-2.29-4.32,3.06-3.62-1.61-4.95-3.01-1.86-1.95-3.59-3.9-6.73-3.52-1.8.22-3.63-.05-4.88-2.02,1.57-1.57,2.58-.11,3.77.48,1.65.82,2.95-.24,3.96-1.27,1.42-1.44-.08-1.84-1.11-2.38-.88-.46-1.2-1.61-.5-2.04,2.41-1.49,2.91-5.36,4.81-5.89,3.9-1.08,6.3-5.13,10.66-4.84,1.04.07,2.48-.36,2.46-1.27-.08-4.17,4.77-5.76,4.8-10.06.02-3.16,3.6-3.61,5.99-4.36,1.82-.57,3.5-.98,4.49-2.71,1.51-2.62,2.23-6.06,6.71-4.95,1,.25,1.88-1.54,1.34-2.71-1.05-2.28.45-2.87,1.95-3.71,1.63-.91,3.03-1.14,4.4.48,1.31,1.55,2.69,2.39,5.13,2.12,2.53-.28,3.66,1.52,2.75,4.37-1.56,4.89-.32,6.85,4.81,7.84,1.4.27,2.4,1.03,3.57,1.6,1.24.6,2.48.45,2.44-1.24-.11-4.52,1.9-2.03,2.83-.73,1.32,1.85,2.57,3.3,5.03,3.57,2.03.22,3.05,1.96,3.69,3.7,1.39,3.8,3.8,6.08,8.04,6.27,1.67.07,10.73,12.15,10.36,13.69-.18.75-.84,1.38-1.26,2.08-2.17,3.56-5.97,5.96-7,10.42-.41,1.77-2.62,2.71-4.5,2.34-1.64-.32-4.12-1.02-1.51-3.45.75-.7,1.74-1.3,1.09-2.41-.73-1.24-2.1-1.06-3.11-.52-3.82,2.08-5.83,6.04-8.93,8.88-.58.53-.09,1.23.56,1.58,1.75.93,3.49,1.87,5.27,2.74,1.48.72,2.37-.05,3.36-1.18,3.12-3.57,8.05-2.89,9.81,1.22.29.68.42,1.54-.15,1.78-2.83,1.15-3.25,3.91-4.58,6.14-1.73,2.93-3.74,1.15-5.16-.46-2.29-2.59-4.99-4.14-8.36-4.9-2.48-.56-4.57.56-6.82.94-1.61.28-1.8,1.69-.93,2.63,1.82,1.98.58,3.57-.09,5.43-.83,2.31-1.68,3.58-4.18,1.68-1.79-1.37-3.33-1.01-3.23,1.49.14,3.42-3.32,3.84-4.65,6.03-.6.98-1.82.42-2.41-.58-.92-1.55-2.53-2.08-3.99-2.84-2.44.51-1.55-2.43-3.03-2.91-1.53.42-.5,3.44-2.96,2.91Z"/>
      <path class="cls-5" d="m247.34,472.33c.2,2.75-1.48,3.63-3.47,5.39-4.34,3.84-10.21,6.21-12.97,11.68-.9,1.78-1.54,3.06-3.87,2.92-2.63-.16-3.48-1.81-3.59-3.9-.11-2.32-1.01-3.55-3.32-3.05-5.42,1.16-8.23-2.51-10.49-6.16-1.24-2.01-2.27-2.81-4.48-2.95-3.97-.25-6.94-2.05-7.8-6.25-.3-1.49-1.11-2.25-2.5-2.73-1.79-.62-1.79-1.72-.48-2.94,2.22-1.61,1.1-3.39-.65-3.26-4.87.36-5.21-2.3-4.91-5.9.07-.88-.74-1.38-1.44-1.82-2.33-1.35-4.66-1.35-7,0-2,2.87-4-.97-6,0-1.55-1.65-1.09-2.66,1.04-2.94,1.33-.17,3.08.02,3.48-1.41,2.38-8.6,10.42-12.83,15.47-19.3,4.26-5.46,9.87-11.41,17-13.89,4.29-1.49,6.53-5.42,10.62-6.84.76-.27,1.55-1.91,2.35-1.37,4.21,2.86,9.97,1.51,13.82,5.19.76.73,1.15,1.6,1.19,2.65-.92.73-2,1.03-3.55,1.21,1.8.3,3.12-1.38,4.55-.21,2.49-.31,4.34,1.05,5.17,3.02.82,1.94-.85,3.24-2.53,4.17-.75.42-1.4,1.04-.75,1.94.51.7,1.47,1.06,2.2.63,2.58-1.55,4.33.19,6.22,1.4.68.44,1.55.94,1.22,1.9-.41,1.21-1.61.8-2.53.91-1.32,2.16-.81,3.53,1.81,3.46,2.73-.07,5.52.63,8.19-.47,3.49.4,5.55,3.18,7.9,5.2,2.25,1.94,4.4,3.86,5.08,7.64.54,2.98-.25,5.04-1.82,5.66-3.18,1.25-4.05,3.83-5.49,6.27-.92,1.57-1.55,3.66-4.24,3.78-.14-2.2,2.27-3.51,1.56-5.6-1.04-1.37-1.83-3.23-4.03-2.77-2.88.6-.47,3.51-1.97,4.76-3.5,2.39-4.73,6.67-7.84,9.4-1.42,1.24-1.12,2.96-1.15,4.57Z"/>
      <path class="cls-5" d="m198.36,321.69v-2c2.64.24,4.42-1.33,5.92-3.09,1.64-1.92,3.04-3.93,5.92-4.06,1.04-.05,1.65-.85,1.88-1.99,1.03-5.05,7.04-11.08,11.68-11.7,1.44-.19,3.17-.5,3.51,1.68.83,5.33,5.24,7.59,9.24,9.45,4.49,2.08,8.91,3.57,11.62,8.28,1.23,2.14,4.57,2.75,6.8,3.63,2.75,1.08,1.44,4.78,4.76,4.96,3.42.18,2.58,4.48,4.4,5.9,3.08,2.4,6.08,5.4,10.3,5.86,1.99.22,3.67.47,3.88,2.89.2,2.28-.41,3.95-3.08,4.15-2.82.21-3.89,2.58-4.83,4.56-1.69,3.56-4.16,5.77-8.04,6.4-.48.09-.97.23-1.45.21-3.73-.19-5.66.61-2.54,4.38.3.36.19.93-.01,1.39-2.33,1.33-4.66,2.66-7,3.99-.6-.29.19.02-.39-.3-3.23-1.78-6.96-2.43-9.87-.48-2.72,1.81-1.25,5.45-1.11,8.33.04.81.34,1.61.38,2.43-1.72,1.74-4.54,2.74-4,5.99-3.19-1.22-6.44-1.94-9.92-1.76-2.42.13-4.84-.47-5.12-3.4-.34-3.56-2.34-3.57-4.95-2.82h-2c1.34-3.68,1.05-7.52.97-11.31-.05-2.38.55-3.96,3.31-3.64,3.86.45,3.79-2.04,3.74-4.72-.06-3.18.41-6.7-4.08-7.19-2.63-.29-5.32-.13-7.98-.07-2.7.06-4.01-1.12-3.96-3.86.05-2.66-.07-5.32.02-7.97.11-2.96-1.21-4.17-4.17-4.2-1.95-.02-3.9-.61-5.84-.94.07-3.12.35-6.2,2-8.98Z"/>
      <path class="cls-5" d="m148.38,219.94c0-3.64.02-7.29,0-10.93-.02-3.91,2.2-5.03,5.76-5.08,3.8-.06,4.34,2.04,4.26,5.09-.11,4.3-.03,8.61-.03,12.92-4.09,4.7-7.25,4.07-10-2Z"/>
      <path class="cls-5" d="m216.35,374.57c1.27-.98,1.24-3.72,3.91-2.82,2.04.68,2.23,2.34,2.05,4.01-.4,3.73,1.85,3.77,4.62,3.87,3.33.12,7.43-1.69,9.41,2.92-.06,5.82-4.33,4.92-8,4.99-2.34-1.65-4.22-3.95-7-4.99q-3.28-2.13-5-7.98Z"/>
      <path class="cls-5" d="m240.34,376.56c-4.27-2.98-1.77-7.25-1.63-10.79.13-3.11,3.68-2.39,5.74-2.06,2.41.39,6.48-2.44,6.88,2.87-4.01,1.28-4.77,5.77-7.89,8-1.01.72-1.63,1.96-3.1,1.97Z"/>
      <path class="cls-5" d="m158.38,250.87c-2.23.29-2.03,1.62-1.44,3.21.77,2.06.55,4.22.31,6.31-.23,2.1-1.43,3.9-3.63,4.06-2.42.17-3.33-1.49-3.32-3.84,0-.92-.59-1.84-.92-2.75.05-1.65-.14-3.35.21-4.94.45-2.06,1.02-4.24,3.6-4.85,2.58-.6,4.06.76,5.19,2.8Z"/>
      <path class="cls-5" d="m314.3,334.66c2.54-.32,4.27.4,4.17,3.34-.11,3.02-2.44,1.46-3.7,1.57-2.35.2-4.13.41-4.5,3.39-.68,5.48-4.13,6.44-8.96,2.68,1.88-1.21,3.7-2.33,5.06-4.33,1.38-2.04,3.03-4.08,6.46-3.34,2.14.46,2.59-1.45,1.48-3.3Z"/>
      <path class="cls-5" d="m145.38,244.88c0-.5,0-1,0-1.49.12-6.69.93-7.45,7.99-7.48,2.57,1.19,1.7,2.61.43,4.29-2.14,2.85-3.69,6.57-8.43,4.69Z"/>
      <path class="cls-5" d="m305.31,368.58c-.32,1.43-.61,2.86-.95,4.29-.67,2.72-1.96,5.04-5.03,5.32-1.46.13-3.22-.72-3.56-2.18-.66-2.82-1.65-6.2,1.12-8.26,2.98-2.21,1.33-3.01-.57-4.15,1.46,1.18,4.94-2.69,5,2,.77,2.77-2.48,4.51-1.93,7.5,3.39.21,2.69-4.85,5.93-4.51Z"/>
      <path class="cls-5" d="m305.31,368.58c-.93,1.51-1.83,3.04-2.82,4.51-.92,1.37-2.09,2.98-3.85,1.62-1.26-.98-1.81-2.67-.55-4.36,1.15-1.53,2.14-3.17,3.21-4.76,1.33.67,2.67,1.33,4,2v1Z"/>
      <path class="cls-5" d="m148.38,451.38c-.55-.6-1.02-1.31-1.66-1.79-1.37-1.05-3.76-1.62-2.26-4.05.95-1.54,2.69-1.86,4.4-1.31,2.09.67,2.83,2.2,2.34,4.3-.22.96-.55,1.9-.82,2.86-.67.08-1.33,1.11-2,0Z"/>
      <path class="cls-5" d="m258.33,362.59c-.16-.28-.36-.55-.47-.85-.66-1.83-4.8-2.11-2.92-4.7,1.78-2.45,4.8-2.04,7.39-.44-.41,2.61-1.6,4.7-4,5.99Z"/>
      <path class="cls-5" d="m221.35,382.55c4.19-.94,5.76,1.79,7,4.99-3.41,2.62-5.77.93-7-4.99Z"/>
      <path class="cls-5" d="m359.28,276.8c-.55-4.85-.11-9.11,6-9.98-2.22,3.19-1.9,7.91-6,9.98Z"/>
      <path class="cls-5" d="m352.28,304.73l-9-2.99c.37-.3.71-.67,1.13-.89,5.21-2.76,5.74-2.49,7.87,3.89Z"/>
      <path class="cls-5" d="m216.35,276.8c2.1-1.26-.3-5.41,2.86-5.38,2.85.03,1.27,4,3.14,5.38-2,1.51-4,1.51-6,0Z"/>
      <path class="cls-5" d="m323.3,326.68c2.48-.35,3.39,1.23,3.31,3.21-.08,2.17-2.06,1.71-3.45,1.75-2.62.07-5.24.02-7.86.02,1.29-1.58,3.09-.78,4.66-1.01,2.28-.34,4.46-.78,3.33-3.98Z"/>
      <path class="cls-5" d="m167.37,441.4c0-3.1.06-6.19,0-9.29-.04-2.44,1.05-3.7,3.54-3.67,1.48.01,2.97,0,4.45,0-.32,2.75-2.03,1.19-3.31,1.1-2.42-.16-4.11.7-3.31,3.44.91,3.11-.36,5.71-1.37,8.43Z"/>
      <path class="cls-5" d="m284.32,353.62c1.6,1.07.41,2.71.78,4.08.83,3.13-.35,5.05-4.02,4.96-1.24-.03-2.5.61-3.76.94.2-2.11,1.77-1.94,3.25-2.01,2.77-.12,4.85-1.07,2.88-4.14-1.23-1.92.52-2.58.86-3.83Z"/>
      <path class="cls-5" d="m187.36,453.37c.45.17,1.29.3,1.31.5.32,4.1,1.45,7.03,6.53,7.33,1.59.09,1.67,2.58-.84,3.15,1.35-3.34-1.19-2.81-3-2.99-1.98.13-3.15-.59-3-2.78.12-1.81,0-3.59-1-5.2Z"/>
      <path class="cls-5" d="m240.34,416.46c-1.63.66-3.21,1.48-4.9,1.9-.99.25-2.51.41-2.77-1.15-.28-1.68,1.13-1.68,2.27-1.72,1.47-.05,2.93-.02,4.4-.03.33.33.67.67,1,1Z"/>
      <path class="cls-5" d="m335.29,311.72c.56,1.38,2.15,2.25,2,3.99-.63.15-1.3.22-1.89.47-1.12.48-2.37.84-3.14-.25-1.15-1.61.75-2.17,1.45-3.08.38-.49,1.04-.76,1.57-1.13Z"/>
      <path class="cls-5" d="m256.33,458.36c.11-2.08-1.53-4.95,1.82-5.7,2.59-.58,3.77,1.35,4.17,3.71-3.49-3.8-4.51-.19-6,2Z"/>
      <path class="cls-5" d="m304.31,419.46c-1.01-2.46-.52-4.93,1.4-6.4,1.94-1.48,4.01-.24,5.6,1.41-4.05-.74-6.48.78-7,4.99Z"/>
      <path class="cls-5" d="m295.31,362.59c-.64,0-1.28.05-1.92,0-1.53-.13-3.75.65-4.27-1.19-.62-2.2,2.58-1.26,3.19-2.79,1,1.33,2,2.66,3,3.99Z"/>
      <path class="cls-5" d="m249.33,406.49c.2-1.46.79-2.29,2.24-1.14,1.22.96,2.32,2.18,1.27,3.8-.6.93-1.66,1.56-2.51,2.33-.88-.56-2.2-.93-.38-2.1,2.06-1.33,1.61-2.36-.62-2.88Z"/>
      <path class="cls-5" d="m174.37,453.37c2-2.22,4,1.51,6,0-.18,1.11.04,2.7-.61,3.23-1.27,1.03-1.78-.66-2.58-1.37-.84-.73-1.86-1.25-2.8-1.87Z"/>
      <path class="cls-5" d="m259.33,433.42c-3.03,1.96-6.43,1.09-9.56.74-1.9-.21-3.11-2.13-.44-3.73-.1,1.92.55,3.07,2.73,3,2.42-.08,4.84-.01,7.26,0Z"/>
      <path class="cls-5" d="m280.68,354.18c-.72,2.36-1.71,4.43-5.15,4.13,1.1-2.56,3.65-2.76,5.15-4.13Z"/>
      <path class="cls-5" d="m315.3,413.47c1.4-1.43,3.99-.91,5-2.99.68,1.24,1.16,2.54,1,3.99-2.39,2.01-3.81-1.79-6-1Z"/>
      <path class="cls-5" d="m130.39,295.76c-1.71-3.36-.06-5.93,1.97-8.43,1.56-1.91,3.16-3.8,4.57-5.82,1.17-1.67,2.18-3.87,4.52-1.87,2.3,1.97,1.88,5.46.09,6.52-2.98,1.77-3.93,3.52-3.23,6.71.36,1.64-1.38,2.53-1.92,3.89-2.28,1.34-4.32,1.25-6-1Z"/>
      <path class="cls-5" d="m181.37,309.72c-6.19-.49-4.72-5.21-5-8.98,1.66,0,3.32,0,4.98,0,2.51-.01,4.87.64,5.5,3.29.63,2.69-1.27,4.23-3.57,5.2-.6.25-1.27.33-1.91.49Z"/>
      <path class="cls-5" d="m198.36,321.69c0,3.14.51,6.4-2,8.98-2.45,1.93-5.2,1.97-8.13,1.46-1.55-.27-1.7-1.3-1.94-2.41-.16-.74-.7-1.77.56-1.94,4.61-.62,7.5-4.39,11.51-6.09Z"/>
      <path class="cls-5" d="m166.51,290.26c-4.05-.36-8.02-.67-11.27-3.75-.68-.65-2.83-.26-2.26-2.04.38-1.17,2.03-1.93,3.36-1.47,4.03,1.38,8.96,1.55,10.17,7.26Z"/>
      <path class="cls-5" d="m142.52,267.91c2.96-.34,4.6.72,4.49,3.14-.09,1.97-1.71,3.52-3.63,3.47-2.97-.08-3.42-2.94-3.67-5.02-.27-2.25,2.03-1.44,2.81-1.6Z"/>
      <path class="cls-5" d="m130.39,295.76c2,.33,3.88,1.35,6,1-1.54,2.99-4.31,1.84-6.67,1.88-.77.01-1.77-.4-1.63-1.46.17-1.26,1.31-1.3,2.3-1.42Z"/>
      <path class="cls-5" d="m152.66,280.79c-1.9.6-2.25-.13-2.26-1.33-.01-1.48.34-2.64,2.15-2.58,1.5.05,2.66.77,2.62,2.33-.05,1.96-1.91,1.32-2.52,1.58Z"/>
      <path class="cls-5" d="m173.3,288.65c-.05,1.17-.42,2.05-1.7,1.9-1.56-.19-2.14-1.29-2.15-2.74,0-1.09.42-1.96,1.68-1.82,1.57.18,2.1,1.3,2.16,2.66Z"/>
      <path class="cls-5" d="m122.4,432.43c1,.67,2,1.33,3,2-.59.24-1.34.33-1.74.76-1.35,1.44-3.39,1.94-4.17.4-1.12-2.22,1.14-2.78,2.91-3.16Z"/>
      <path class="cls-5" d="m135.39,460.36c-.24.22-.49.64-.72.63-4.48-.21-6.79,1.67-6.27,6.35-2.1-6.28-1.4-6.98,7-6.98Z"/>
      <path class="cls-5" d="m122.76,478.1c-.31,3.61-2.33,4.35-5.32,5.24.94-3.04,2.41-4.36,5.32-5.24Z"/>
      <path class="cls-5" d="m81.42,504.25c-2.75-2.29-1.43-3.5,1.23-3.92,1.88-.3,3.84-.07,5.77-.07-1.12,1.44-2.73,1.01-4.15.97-2.2-.06-2.99.99-2.85,3.02Z"/>
      <path class="cls-5" d="m301.31,443.4c2.51-3.64,6.24-6.75,5.17-12.31,2.53,1.32,4.88,2.54,7.22,3.75.26-.41.45-.67.59-.96.68-1.37.71-3.78,2.99-3.02,1.72.57,1.22,2.63.67,3.9-.58,1.34-.44,3.69-3.54,2.53-2.98-1.12-7.33,4.33-7.22,8.92.06,2.32-.23,3.94-2.89,4.18,1.94-2.53,2.81-4.69-1.69-5.15-.99-.1-1.18-1-1.31-1.84Z"/>
      <path class="cls-5" d="m439.11,464.06c-.25,1.28-1,2.14-2.32,2.11-1.3-.03-1.65-1.04-1.28-2.09.36-1.01.61-2.5,2.11-2.29,1.04.14,1.53,1.15,1.48,2.27Z"/>
      <path class="cls-5" d="m336.29,501.26c-1.24-2.51-4.35-1.3-6-2.99,3.32.84,5.96-2.6,9.63-1.39-2.45.62-4.13,1.69-3.63,4.38Z"/>
      <path class="cls-5" d="m368.28,469.34c2.57-1.34,6.52-.73,7-4.99-.25,1.98.34,3.78,1.73,6.1-3.3-.79-5.98-1.39-8.73-1.11Z"/>
      <path class="cls-5" d="m333.29,478.31c1.55-1.15,3.47-2.5,5.14-1.45,1.48.93-.64,2.89-.14,4.44-1.15-1.85-2.28-3.74-5-2.99Z"/>
      <path class="cls-5" d="m329.3,508.24c-1.26-.81-1.07-2.33-1.66-3.47-.37-.71-.53-1.74.5-2.06,1.21-.38,1.67.69,2.16,1.53-1.47,1.05-.86,2.61-1,3.99Z"/>
      <path class="cls-5" d="m326.27,402.52c-2.91-.08-4.95-1.25-4.83-4.07.12-2.7,1.58-4.24,4.72-3.15,1.58.55,3.23.35,4.72-.79,1.54-1.19,2.6.41,3.34,1.19,1.07,1.12-.79,1.37-1.13,2.11-1.41,3.04-4.01,4.16-6.83,4.73Z"/>
      <path class="cls-5" d="m318.27,388.44c.08,2.38-.53,4.04-2.96,3.98-2.31-.05-3.77-1.44-3.9-3.72-.13-2.32,1.31-3.86,3.55-4.04,2.75-.21,2.93,2.11,3.3,3.77Z"/>
      <path class="cls-5" d="m319.98,349.12c-1.28,1.44-2.97,2.92-5.28,3.28-.89.14-1.67-1.14-1.08-1.61,1.82-1.43,3.88-2.58,5.94-3.65.29-.15.72.91.42,1.97Z"/>
      <path class="cls-5" d="m325.38,340.46c-1.12-.42-1.98-.98-1.7-1.83.83-2.53,4.06-2.19,5.37-4.22.3.34.91.92.86.98-1.43,1.82-2.64,3.88-4.53,5.07Z"/>
      <path class="cls-5" d="m299.2,471.81c-.13,1.02-.43,2.02-1.71,1.85-1.21-.16-2.12-.87-2.1-2.27.01-1.09.36-1.98,1.67-1.86,1.33.12,1.97.99,2.14,2.28Z"/>
      <path class="cls-5" d="m337.33,418.39c-1.5-.04-2.06-.9-1.91-2.28.14-1.25,1.07-1.63,2.15-1.54,1.23.09,2.43.54,2.31,2.02-.11,1.42-1.29,1.76-2.55,1.8Z"/>
    </g>
  </g>
</svg>